Coordinates
version=1
nRows=26
nColumns=30
inDegrees=yes

Units are S.I. units (second, meters, Newtons, ...)
Angles are in degrees.

endheader
time	floatyaw	floatroll	floatpitch	floatx	floaty	floatz	pro_sup_l	deviation_l	flexion_l	cmc_flexion_l	cmc_abduction_l	mp_flexion_l	ip_flexion_l	2mcp_flexion_l	2mcp_abduction_l	2pm_flexion_l	2md_flexion_l	3mcp_flexion_l	3mcp_abduction_l	3pm_flexion_l	3md_flexion_l	4mcp_flexion_l	4mcp_abduction_l	4pm_flexion_l	4md_flexion_l	5mcp_flexion_l	5mcp_abduction_l	5pm_flexion_l	5md_flexion_l
-0.495000	-160.147433	-5.066637	-73.570646	0.069867	-0.177148	-0.027232	93.334824	-0.578190	-1.441148	13.882028	-0.627901	-25.681469	-41.240979	32.533022	7.123920	42.239551	30.743160	26.707810	4.333587	45.190330	31.469267	15.292296	-4.590333	53.625539	38.041995	0.603345	-7.976822	62.802031	43.937546
-0.485000	-160.147433	-5.066637	-73.570646	0.069859	-0.177141	-0.027236	93.326626	-0.581731	-1.436143	13.882396	-0.621412	-25.654795	-41.213634	32.544110	7.137859	42.214550	30.767753	26.718773	4.338260	45.164656	31.480240	15.282968	-4.592034	53.651631	38.067506	0.618484	-7.977862	62.807192	43.954185
-0.475000	-160.147433	-5.066637	-73.570646	0.069853	-0.177139	-0.027242	93.316822	-0.587385	-1.434960	13.879644	-0.604394	-25.638735	-41.188996	32.552913	7.148960	42.209108	30.784946	26.733139	4.340340	45.148419	31.477766	15.274850	-4.588948	53.679875	38.072228	0.633875	-7.983487	62.821548	43.960101
-0.465000	-160.147433	-5.066637	-73.570646	0.069846	-0.177139	-0.027249	93.307135	-0.594471	-1.437947	13.872747	-0.585536	-25.636155	-41.174742	32.560353	7.155077	42.219130	30.792427	26.748557	4.340096	45.141142	31.464168	15.271312	-4.581749	53.702349	38.058715	0.648405	-7.994487	62.842163	43.958462
-0.455000	-160.147433	-5.066637	-73.570646	0.069839	-0.177142	-0.027260	93.299892	-0.601604	-1.443084	13.863458	-0.576120	-25.646376	-41.177598	32.567576	7.155994	42.233653	30.790203	26.761983	4.338269	45.140508	31.446594	15.274667	-4.572411	53.711966	38.035106	0.661657	-8.009858	62.863160	43.954187
-0.445000	-160.147433	-5.066637	-73.570646	0.069831	-0.177144	-0.027273	93.295614	-0.607467	-1.446553	13.855715	-0.583564	-25.666889	-41.200785	32.575163	7.152881	42.240887	30.779878	26.770645	4.335706	45.143538	31.432811	15.283739	-4.563648	53.706447	38.011400	0.672209	-8.026349	62.878083	43.950858
-0.435000	-160.147433	-5.066637	-73.570646	0.069820	-0.177143	-0.027287	93.291786	-0.611543	-1.444459	13.853644	-0.607382	-25.694597	-41.242248	32.582874	7.147417	42.234493	30.764042	26.773345	4.333031	45.147442	31.427217	15.293591	-4.557988	53.689871	37.995691	0.677034	-8.039317	62.882545	43.949091
-0.425000	-160.147433	-5.066637	-73.570646	0.069809	-0.177137	-0.027303	93.283813	-0.614517	-1.434922	13.858989	-0.639648	-25.725891	-41.294255	32.589881	7.141327	42.216962	30.745889	26.771329	4.330501	45.150379	31.429164	15.297987	-4.556812	53.670955	37.991598	0.672942	-8.044859	62.876338	43.947026
-0.415000	-160.147433	-5.066637	-73.570646	0.069796	-0.177127	-0.027322	93.267538	-0.618168	-1.419345	13.868983	-0.669046	-25.756297	-41.344726	32.595255	7.136350	42.198169	30.728602	26.767889	4.328094	45.152248	31.434103	15.293110	-4.559767	53.659008	37.997414	0.659045	-8.042167	62.864304	43.942330
-0.405000	-160.147433	-5.066637	-73.570646	0.069782	-0.177114	-0.027345	93.241679	-0.624652	-1.402000	13.875812	-0.685747	-25.780834	-41.380242	32.598426	7.134102	42.189722	30.714125	26.766503	4.325750	45.155045	31.436356	15.279978	-4.564902	53.659646	38.006954	0.638243	-8.034684	62.855325	43.934366
-0.395000	-160.147433	-5.066637	-73.570646	0.069768	-0.177100	-0.027378	93.208790	-0.635219	-1.387984	13.868484	-0.684545	-25.795493	-41.390045	32.599251	7.135446	42.198351	30.701866	26.768452	4.323554	45.162111	31.431670	15.263809	-4.569493	53.672315	38.011798	0.616501	-8.029060	62.859078	43.925280
-0.385000	-160.147433	-5.066637	-73.570646	0.069755	-0.177086	-0.027421	93.174300	-0.648844	-1.380489	13.836862	-0.665353	-25.798999	-41.369668	32.597432	7.139733	42.222392	30.688549	26.771304	4.321739	45.176262	31.418407	15.250544	-4.571169	53.690592	38.004362	0.600447	-8.032010	62.881032	43.919238
-0.375000	-160.147433	-5.066637	-73.570646	0.069746	-0.177076	-0.027473	93.144277	-0.661544	-1.378703	13.776011	-0.631948	-25.793460	-41.322509	32.591417	7.144761	42.253217	30.669683	26.769089	4.320475	45.197634	31.397219	15.242605	-4.568858	53.704651	37.980640	0.594986	-8.046489	62.917440	43.919664
-0.365000	-160.147433	-5.066637	-73.570646	0.069743	-0.177069	-0.027531	93.123316	-0.666973	-1.377386	13.688586	-0.590408	-25.783001	-41.258183	32.577619	7.147922	42.279978	30.641533	26.753872	4.319610	45.222539	31.369717	15.236449	-4.563205	53.704433	37.941220	0.602401	-8.069358	62.953115	43.925337
-0.355000	-160.147433	-5.066637	-73.570646	0.069746	-0.177066	-0.027587	93.114114	-0.658293	-1.368500	13.584213	-0.547747	-25.771050	-41.188257	32.550674	7.148043	42.294340	30.602103	26.717866	4.318605	45.244114	31.336811	15.223413	-4.556356	53.682274	37.889826	0.623150	-8.092242	62.964428	43.927440
-0.345000	-160.147433	-5.066637	-73.570646	0.069757	-0.177065	-0.027639	93.119609	-0.630646	-1.344385	13.476492	-0.510249	-25.758261	-41.121722	32.504520	7.146508	42.293265	30.551186	26.655564	4.316710	45.254286	31.297346	15.193432	-4.551233	53.634392	37.830172	0.657245	-8.105474	62.927536	43.910186
-0.335000	-160.147433	-5.066637	-73.570646	0.069774	-0.177062	-0.027684	93.147144	-0.583186	-1.301157	13.378894	-0.481244	-25.743082	-41.062972	32.433169	7.146437	42.280132	30.490903	26.565634	4.313275	45.245593	31.247572	15.139772	-4.550549	53.560887	37.763059	0.704686	-8.103018	62.828455	43.856153
-0.325000	-160.147433	-5.066637	-73.570646	0.069797	-0.177051	-0.027732	93.212447	-0.519627	-1.240520	13.300494	-0.459288	-25.725198	-41.013457	32.330535	7.149916	42.264685	30.427164	26.452138	4.307949	45.211680	31.181675	15.062462	-4.555861	53.464279	37.685399	0.764231	-8.085555	62.669926	43.754374
-0.315000	-160.147433	-5.066637	-73.570646	0.069826	-0.177019	-0.027798	93.340008	-0.446705	-1.168639	13.242160	-0.438486	-25.709756	-40.975498	32.190355	7.154992	42.261028	30.370073	26.324488	4.300637	45.146776	31.093098	14.968990	-4.566867	53.347295	37.591458	0.831348	-8.060009	62.471638	43.606837
-0.305000	-160.147433	-5.066637	-73.570646	0.069864	-0.176948	-0.027912	93.556322	-0.370817	-1.092303	13.194012	-0.411735	-25.709240	-40.955077	32.008309	7.154779	42.282895	30.330948	26.196017	4.291275	45.045952	30.976374	14.872391	-4.581082	53.211270	37.475393	0.897485	-8.036002	62.263985	43.429451
-0.295000	-160.147433	-5.066637	-73.570646	0.069909	-0.176813	-0.028112	93.875062	-0.293746	-1.014719	13.135319	-0.375500	-25.741017	-40.961032	31.787155	7.140035	42.338034	30.316565	26.081736	4.279649	44.907934	30.829408	14.788234	-4.593934	53.056290	37.333771	0.952808	-8.021568	62.078582	43.246593
-0.285000	-160.147433	-5.066637	-73.570646	0.069951	-0.176585	-0.028443	94.278918	-0.208446	-0.934116	13.037727	-0.333298	-25.821045	-41.000517	31.542419	7.104316	42.425860	30.324710	25.996285	4.265525	44.740087	30.655975	14.732422	-4.599316	52.883116	37.167075	0.992724	-8.020770	61.939924	43.081981
-0.275000	-160.147433	-5.066637	-73.570646	0.069962	-0.176237	-0.028957	94.708668	-0.095530	-0.846854	12.871493	-0.296075	-25.956321	-41.073098	31.303863	7.048810	42.541206	30.345277	25.952847	4.249135	44.562252	30.467331	14.720865	-4.590706	52.695852	36.979907	1.025456	-8.034087	61.861845	42.950630
-0.265000	-160.147433	-5.066637	-73.570646	0.069894	-0.175747	-0.029702	95.069907	0.078348	-0.753587	12.612795	-0.279952	-26.139640	-41.167043	31.109254	6.983492	42.681752	30.367075	25.962901	4.231690	44.405035	30.281385	14.770123	-4.562911	52.503819	36.780402	1.075666	-8.059757	61.849403	42.855787
-0.255000	-160.147433	-5.066637	-73.570646	0.069682	-0.175099	-0.030718	95.259123	0.357922	-0.664378	12.249423	-0.302844	-26.349879	-41.260750	30.991828	6.922911	42.852359	30.385507	26.035541	4.215345	44.300823	30.118605	14.896597	-4.514020	52.321055	36.579384	1.180230	-8.093136	61.902366	42.791047
-0.245000	-160.147433	-5.066637	-73.570646	0.069249	-0.174283	-0.032029	95.197929	0.790385	-0.598759	11.782668	-0.380510	-26.559016	-41.329795	30.967570	6.878329	43.060756	30.404886	26.174986	4.202226	44.270494	29.995403	15.112774	-4.446651	52.161973	36.388750	1.376853	-8.123574	62.013990	42.743900
